# xmcd
#
# Track frame offsets: 
#        150
#        13580
#        28185
#        43417
#        57515
#        71147
#        84137
#        98220
#        109137
#        124347
#        139275
#        154675
#        169950
#        184785
#        200582
#        214550
#        227937
#        242145
#        256132
#        271625
#        287457
#        302567
#        316510
#
# Disc length: 4403 seconds
#
# Revision: 0
# Processed by: cddbd v1.5.2PL0 Copyright (c) Steve Scherf et al.
# Submitted via: ExactAudioCopy v1.1
#
DISCID=47113117
DTITLE=淡谷のり子 - SP盤復刻による 淡谷のり子名唱集 Disc 1 COCA-11215-17
DYEAR=1900
DGENRE=Blues
TTITLE0=あなたのものよ
TTITLE1=私此頃憂鬱よ
TTITLE2=ラクビー・ソング
TTITLE3=赤い唇
TTITLE4=佳人よ何処へ
TTITLE5=二人の夢
TTITLE6=リラの花蔭
TTITLE7=来る来るサーカス
TTITLE8=マダム・バタフライの唄
TTITLE9=恋の月
TTITLE10=青い小径
TTITLE11=おしゃれ娘
TTITLE12=グラナダの娘達
TTITLE13=別れのブルース
TTITLE14=私のトランペット
TTITLE15=雨のブルース
TTITLE16=日暮の窓で
TTITLE17=誕生日の午後
TTITLE18=青い部屋
TTITLE19=夜のタンゴ
TTITLE20=東京ブルース
TTITLE21=鈴蘭物語
TTITLE22=散りゆく花
EXTD=
EXTT0=
EXTT1=
EXTT2=
EXTT3=
EXTT4=
EXTT5=
EXTT6=
EXTT7=
EXTT8=
EXTT9=
EXTT10=
EXTT11=
EXTT12=
EXTT13=
EXTT14=
EXTT15=
EXTT16=
EXTT17=
EXTT18=
EXTT19=
EXTT20=
EXTT21=
EXTT22=
PLAYORDER=
